<svg xmlns="http://www.w3.org/2000/svg" viewBox="0 0 860 256" role="img" aria-label="Warren"><title>Warren</title><path d="M150 26H172A58 58 0 0 1 230 84V172A58 58 0 0 1 172 230H84A58 58 0 0 1 26 172V84A58 58 0 0 1 84 26H106" fill="none" stroke="#3D9BFF" stroke-width="20" stroke-linecap="round"/><path d="M146 70H152A34 34 0 0 1 186 104V152A34 34 0 0 1 152 186H104A34 34 0 0 1 70 152V104A34 34 0 0 1 104 70H110" fill="none" stroke="#FF6B73" stroke-width="18" stroke-linecap="round"/><rect x="106" y="112" width="44" height="44" rx="13" fill="#FFD23F"/><text x="300" y="176" font-family="Inter, -apple-system, 'SF Pro Display', sans-serif" font-weight="650" font-size="148" letter-spacing="-6" fill="#FAFAF9">warren</text></svg>
