<svg xmlns="http://www.w3.org/2000/svg" viewBox="0 0 560 400" role="img" aria-label="Warren"><title>Warren</title><g transform="translate(152 0)"><path d="M150 26H172A58 58 0 0 1 230 84V172A58 58 0 0 1 172 230H84A58 58 0 0 1 26 172V84A58 58 0 0 1 84 26H106" fill="none" stroke="#0A72E6" stroke-width="20" stroke-linecap="round"/><path d="M146 70H152A34 34 0 0 1 186 104V152A34 34 0 0 1 152 186H104A34 34 0 0 1 70 152V104A34 34 0 0 1 104 70H110" fill="none" stroke="#F9505A" stroke-width="18" stroke-linecap="round"/><rect x="106" y="112" width="44" height="44" rx="13" fill="#FFC400"/></g><text x="280" y="372" text-anchor="middle" font-family="Inter, -apple-system, sans-serif" font-weight="650" font-size="112" letter-spacing="-4" fill="#0E1116">warren</text></svg>
